<svg xmlns="http://www.w3.org/2000/svg" width="105" height="35" fill="none" viewBox="0 0 105 35">
  <g clip-path="url(#a)">
    <path fill="#3FC1C9" d="M17.669 7.625c4.643 0 7.875.828 9.695 2.485 1.82 1.633 2.73 3.943 2.73 6.93 0 2.053-.362 3.803-1.085 5.25-.723 1.423-1.995 2.543-3.815 3.36-1.82.793-4.328 1.19-7.525 1.19h-7.28V33h-8.61c.187-4.527.28-8.762.28-12.705 0-3.943-.093-8.178-.28-12.705h8.61v.035h7.28Zm-2.45 12.46c1.937 0 3.383-.07 4.34-.21.98-.163 1.657-.443 2.03-.84.397-.397.595-.98.595-1.75s-.187-1.342-.56-1.715c-.35-.397-1.015-.665-1.995-.805-.957-.14-2.427-.21-4.41-.21h-4.83v5.53h4.83ZM64.662 7.59a308.097 308.097 0 0 0-.245 12.705c0 4.527.082 8.762.245 12.705h-8.225V14.66h-11.83V33h-8.225c.187-4.527.28-8.762.28-12.705 0-3.943-.093-8.178-.28-12.705h28.28Zm34.57 0a307.92 307.92 0 0 0-.245 12.705c0 4.527.081 8.762.245 12.705h-8.225V14.66h-11.83V33h-8.225c.186-4.527.28-8.762.28-12.705 0-3.943-.094-8.178-.28-12.705h28.28Z"/>
    <path fill="#25537C" d="M19.669 5.625c4.643 0 7.875.828 9.695 2.485 1.82 1.633 2.73 3.943 2.73 6.93 0 2.053-.362 3.803-1.085 5.25-.723 1.423-1.995 2.543-3.815 3.36-1.82.793-4.328 1.19-7.525 1.19h-7.28V31h-8.61c.187-4.527.28-8.762.28-12.705 0-3.943-.093-8.178-.28-12.705h8.61v.035h7.28Zm-2.45 12.46c1.937 0 3.383-.07 4.34-.21.98-.163 1.657-.443 2.03-.84.397-.397.595-.98.595-1.75s-.187-1.342-.56-1.715c-.35-.397-1.015-.665-1.995-.805-.957-.14-2.427-.21-4.41-.21h-4.83v5.53h4.83ZM66.662 5.59a308.098 308.098 0 0 0-.245 12.705c0 4.527.082 8.762.245 12.705h-8.225V12.66h-11.83V31h-8.225c.187-4.527.28-8.762.28-12.705 0-3.943-.093-8.178-.28-12.705h28.28Zm34.57 0a306.867 306.867 0 0 0-.245 12.705c0 4.527.081 8.762.245 12.705h-8.225V12.66h-11.83V31h-8.225c.186-4.527.28-8.762.28-12.705 0-3.943-.094-8.178-.28-12.705h28.28Z"/>
  </g>
  <defs>
    <clipPath id="a">
      <path fill="#fff" d="M0 0h105v35H0z"/>
    </clipPath>
  </defs>
</svg>
