<svg xmlns="http://www.w3.org/2000/svg" width="14" height="15" fill="currentColor" viewBox="0 0 14 15">
  <path d="M0 2.281v6.563c0 .383.273.656.656.656h2.188a.648.648 0 0 0 .656-.656V2.28c0-.355-.3-.656-.656-.656H.656c-.383 0-.656.3-.656.656ZM1.094 7.75c0-.355.273-.656.656-.656.355 0 .656.3.656.656 0 .383-.3.656-.656.656a.632.632 0 0 1-.656-.656Zm7.437 7c.656 0 1.969-.219 1.969-2.215 0-1.148-.71-1.805-.93-2.598h2.79c.902 0 1.613-.738 1.64-1.585 0-.493-.219-1.012-.547-1.34.274-.63.219-1.532-.246-2.16.219-.711 0-1.586-.465-2.051.137-.492.082-.903-.164-1.23C12.031.776 10.637.75 9.461.75h-.082C8.066.777 7 1.242 6.125 1.625c-.438.191-1.012.438-1.45.438-.163.027-.3.164-.3.328v5.851c0 .082.027.192.082.246 1.094 1.067 1.559 2.188 2.434 3.09.41.41.546 1.012.71 1.613.11.493.356 1.559.93 1.559Z"/>
</svg>
