<svg xmlns="http://www.w3.org/2000/svg" width="14" height="15" fill="currentColor" viewBox="0 0 14 15">
  <path d="M4.402 5.563H5.47c.054-.739.191-1.395.383-1.915-.739.356-1.313 1.067-1.45 1.914Zm0 .875a2.612 2.612 0 0 0 1.45 1.94c-.192-.519-.329-1.175-.383-1.94H4.402ZM7 8.598c.191-.192.547-.93.629-2.16H6.344c.082 1.23.437 1.968.656 2.16Zm-.656-3.036h1.285C7.547 4.36 7.19 3.623 7 3.43c-.219.191-.574.93-.656 2.132ZM8.12 8.38a2.616 2.616 0 0 0 1.45-1.941H8.503c-.055.765-.191 1.421-.383 1.94ZM12.25.75H2.625c-.984 0-1.75.793-1.75 1.75V13c0 .984.766 1.75 1.75 1.75h9.625a.881.881 0 0 0 .875-.875V1.625A.9.9 0 0 0 12.25.75Zm-2.188 11.375H3.939a.432.432 0 0 1-.438-.438.45.45 0 0 1 .438-.437h6.124a.47.47 0 0 1 .438.438.45.45 0 0 1-.438.437ZM7 9.5A3.49 3.49 0 0 1 3.5 6c0-1.914 1.559-3.5 3.5-3.5 1.914 0 3.5 1.586 3.5 3.5 0 1.941-1.586 3.5-3.5 3.5Zm1.121-5.852c.191.52.328 1.176.383 1.914H9.57c-.136-.847-.71-1.558-1.449-1.914Z"/>
</svg>
