<svg xmlns="http://www.w3.org/2000/svg" width="14" height="15" fill="currentColor" viewBox="0 0 14 15">
  <path d="M7 14.75c.957 0 1.723-.766 1.723-1.75H5.25c0 .984.766 1.75 1.75 1.75Zm5.879-4.074c-.52-.574-1.531-1.422-1.531-4.239 0-2.105-1.477-3.8-3.5-4.238v-.574C7.848 1.16 7.465.75 7 .75a.881.881 0 0 0-.875.875v.574c-2.023.438-3.5 2.133-3.5 4.239 0 2.816-1.012 3.664-1.531 4.238-.164.164-.246.383-.219.574 0 .465.328.875.875.875h10.473c.546 0 .875-.41.902-.875a.834.834 0 0 0-.246-.574Z"/>
</svg>
