<svg xmlns="http://www.w3.org/2000/svg" width="14" height="15" fill="currentColor" viewBox="0 0 14 15">
  <path d="M5.25 6.438a.9.9 0 0 0-.875-.875h-.438c-.984 0-1.75.792-1.75 1.75v1.312c0 .984.766 1.75 1.75 1.75h.438A.881.881 0 0 0 5.25 9.5V6.437Zm4.813 3.937c.957 0 1.75-.766 1.75-1.75V7.312c0-.957-.793-1.75-1.75-1.75h-.438a.881.881 0 0 0-.875.875V9.5c0 .492.383.875.875.875h.438ZM7 .75c-3.91 0-6.89 3.254-7 7v.438c0 .246.191.437.438.437h.437a.45.45 0 0 0 .438-.438V7.75c0-3.117 2.542-5.688 5.687-5.688 3.117 0 5.688 2.57 5.688 5.688h-.028l.027 4.54c0 .655-.519 1.148-1.175 1.148H8.75a1.33 1.33 0 0 0-1.313-1.313h-.875c-.738 0-1.312.602-1.312 1.313 0 .738.574 1.312 1.313 1.312h4.949c1.367 0 2.488-1.094 2.488-2.46V7.75c-.137-3.746-3.117-7-7-7Z"/>
</svg>
