<svg xmlns="http://www.w3.org/2000/svg" width="18" height="15" fill="currentColor" viewBox="0 0 18 15">
  <path d="M17.04 4.004 15.261 1.16a.897.897 0 0 0-.739-.41H3.477a.947.947 0 0 0-.766.41L.96 4.004C.03 5.48.85 7.504 2.547 7.723c.137.027.246.027.383.027.82 0 1.53-.355 2.023-.902a2.687 2.687 0 0 0 4.02 0c.492.547 1.23.902 2.023.902.82 0 1.531-.355 2.024-.902a2.702 2.702 0 0 0 2.023.902c.137 0 .246 0 .383-.027 1.695-.22 2.515-2.243 1.613-3.72Zm-1.997 4.621c-.273 0-.547-.027-.793-.082v2.707H3.75V8.543a4.173 4.173 0 0 1-.82.082c-.164 0-.328 0-.493-.027-.164-.028-.3-.055-.437-.082v5.359c0 .492.383.875.875.875h12.25a.881.881 0 0 0 .875-.875v-5.36c-.164.028-.3.083-.465.083-.164.027-.328.027-.492.027Z"/>
</svg>
