<svg xmlns="http://www.w3.org/2000/svg" width="18" height="13" fill="currentColor" viewBox="0 0 18 13">
  <path d="M17.23 1.254a8.332 8.332 0 0 0-3.199-.629c-3.363 0-6.726 1.723-10.09 1.723a8.22 8.22 0 0 1-2.543-.383.972.972 0 0 0-.273-.055.881.881 0 0 0-.875.875v8.695c0 .329.191.657.492.793 1.067.438 2.133.602 3.2.602 3.363 0 6.726-1.695 10.09-1.695.847 0 1.695.11 2.542.383.082.027.192.027.274.027.465 0 .902-.356.902-.848V2.047a.907.907 0 0 0-.52-.793ZM1.563 3.387c.547.136 1.122.191 1.696.246a1.73 1.73 0 0 1-1.696 1.394v-1.64Zm0 7.793V9.867c.93 0 1.696.738 1.723 1.668a6.04 6.04 0 0 1-1.723-.355ZM9 9.375c-1.23 0-2.188-1.148-2.188-2.625 0-1.45.958-2.625 2.188-2.625 1.203 0 2.188 1.176 2.188 2.625 0 1.477-.985 2.625-2.188 2.625Zm7.438.766a9.058 9.058 0 0 0-1.504-.22 1.748 1.748 0 0 1 1.504-1.339v1.559Zm0-6.454a1.756 1.756 0 0 1-1.532-1.667c.52.054 1.04.164 1.531.328v1.34Z"/>
</svg>
