<svg xmlns="http://www.w3.org/2000/svg" width="14" height="11" fill="currentColor" viewBox="0 0 14 11">
  <path d="M13.563 9.25H1.75V.937A.47.47 0 0 0 1.312.5H.438A.45.45 0 0 0 0 .938v9.187c0 .492.383.875.875.875h12.688a.45.45 0 0 0 .437-.438v-.874a.47.47 0 0 0-.438-.438Zm-.876-7.875H9.434c-.575 0-.875.71-.465 1.121l.902.902-1.996 1.997-2.023-1.997a.843.843 0 0 0-1.23 0L2.733 5.285a.43.43 0 0 0 0 .602l.63.629a.43.43 0 0 0 .6 0L5.25 5.258l1.996 1.996a.843.843 0 0 0 1.23 0l2.626-2.625.902.902c.41.41 1.094.11 1.094-.465V1.813c.027-.22-.192-.438-.41-.438Z"/>
</svg>
