<svg xmlns="http://www.w3.org/2000/svg" width="14" height="15" fill="currentColor" viewBox="0 0 14 15">
  <path d="m13.316 9.39-1.175-.656a4.647 4.647 0 0 0 0-1.941l1.175-.656a.314.314 0 0 0 .137-.383c-.3-.984-.82-1.86-1.476-2.598a.332.332 0 0 0-.41-.054l-1.176.656A5.496 5.496 0 0 0 8.75 2.8V1.46a.318.318 0 0 0-.273-.3 6.456 6.456 0 0 0-2.98 0c-.165.026-.247.163-.247.3V2.8a4.897 4.897 0 0 0-1.668.984l-1.176-.683a.331.331 0 0 0-.41.054A6.99 6.99 0 0 0 .52 5.754c-.055.137 0 .3.136.383l1.176.656a5.785 5.785 0 0 0 0 1.941l-1.176.657a.314.314 0 0 0-.136.382c.3.985.82 1.86 1.476 2.598a.33.33 0 0 0 .41.055l1.176-.656a5.31 5.31 0 0 0 1.668.957v1.34c0 .136.11.273.246.328a7.294 7.294 0 0 0 2.98 0c.165-.055.274-.192.274-.329v-1.34a5.496 5.496 0 0 0 1.64-.957l1.176.657a.332.332 0 0 0 .41-.055c.684-.738 1.176-1.613 1.504-2.598a.368.368 0 0 0-.164-.382ZM7 9.938A2.16 2.16 0 0 1 4.812 7.75c0-1.203.958-2.188 2.188-2.188 1.203 0 2.188.985 2.188 2.188 0 1.23-.985 2.188-2.188 2.188Z"/>
</svg>
