<svg xmlns="http://www.w3.org/2000/svg" width="18" height="13" fill="currentColor" viewBox="0 0 18 13">
  <path d="M2.875 5.875c.957 0 1.75-.766 1.75-1.75 0-.957-.793-1.75-1.75-1.75-.984 0-1.75.793-1.75 1.75 0 .984.766 1.75 1.75 1.75Zm12.25 0c.957 0 1.75-.766 1.75-1.75 0-.957-.793-1.75-1.75-1.75-.984 0-1.75.793-1.75 1.75 0 .984.766 1.75 1.75 1.75ZM16 6.75h-1.75c-.492 0-.93.219-1.258.52a4.03 4.03 0 0 1 2.078 2.98h1.805a.881.881 0 0 0 .875-.875V8.5c0-.957-.793-1.75-1.75-1.75Zm-7 0a3.075 3.075 0 0 0 3.063-3.063C12.063 2.02 10.668.626 9 .626a3.075 3.075 0 0 0-3.063 3.063A3.057 3.057 0 0 0 9 6.75Zm2.078.875h-.219A4.321 4.321 0 0 1 9 8.063a4.349 4.349 0 0 1-1.887-.438h-.218c-1.75 0-3.145 1.422-3.145 3.172v.765c0 .739.574 1.313 1.313 1.313h7.875c.71 0 1.312-.574 1.312-1.313v-.765a3.174 3.174 0 0 0-3.172-3.172ZM4.98 7.27c-.328-.301-.765-.52-1.23-.52H2c-.984 0-1.75.793-1.75 1.75v.875c0 .492.383.875.875.875h1.777A4.03 4.03 0 0 1 4.98 7.27Z"/>
</svg>
