<svg xmlns="http://www.w3.org/2000/svg" width="15" height="15" fill="currentColor" viewBox="0 0 15 15">
  <path d="m9.86 3.594 1.64.656.656 1.64c.055.083.137.137.219.137.055 0 .137-.054.191-.136l.684-1.641 1.613-.656c.082-.055.137-.137.137-.219 0-.055-.055-.137-.137-.191L13.25 2.5 12.566.887C12.512.805 12.43.75 12.375.75c-.082 0-.164.055-.219.137L11.5 2.5l-1.64.684c-.083.054-.137.136-.137.191 0 .082.054.164.136.219Zm5.003 8.34-1.613-.684-.684-1.613c-.054-.082-.136-.137-.191-.137-.082 0-.164.055-.219.137L11.5 11.25l-1.64.684c-.083.054-.137.136-.137.191 0 .082.054.164.136.219L11.5 13l.656 1.64c.055.083.137.137.219.137.055 0 .137-.054.191-.136L13.25 13l1.613-.656c.082-.055.137-.137.137-.219 0-.055-.055-.137-.137-.191ZM11.5 7.75c-.027-.137-.11-.328-.246-.383L8.164 5.81 6.633 2.746c-.164-.3-.63-.3-.793 0L4.309 5.81l-3.09 1.558c-.137.055-.246.246-.246.383 0 .164.109.328.246.383l3.09 1.558 1.53 3.09A.482.482 0 0 0 6.25 13c.137 0 .3-.082.383-.219l1.531-3.09 3.09-1.558a.429.429 0 0 0 .246-.383Z"/>
</svg>
