<svg xmlns="http://www.w3.org/2000/svg" width="15" height="13" fill="currentColor" viewBox="0 0 15 13">
  <path d="M4.375 11.125h-1.75a.864.864 0 0 1-.875-.875v-7c0-.465.383-.875.875-.875h1.75A.881.881 0 0 0 5.25 1.5a.9.9 0 0 0-.875-.875h-1.75A2.608 2.608 0 0 0 0 3.25v7a2.591 2.591 0 0 0 2.625 2.625h1.75A.881.881 0 0 0 5.25 12a.9.9 0 0 0-.875-.875Zm9.352-4.977-3.5-3.5a.843.843 0 0 0-1.23 0 .843.843 0 0 0 0 1.23l1.995 1.997H5.25a.881.881 0 0 0-.875.875c0 .492.383.875.875.875h5.742L8.996 9.648a.843.843 0 0 0 0 1.23.843.843 0 0 0 1.23 0l3.5-3.5a.843.843 0 0 0 0-1.23Z"/>
</svg>
