<svg xmlns="http://www.w3.org/2000/svg" width="16" height="15" fill="currentColor" viewBox="0 0 16 15">
  <path d="M15.219 2.5h-2.844V1.406c0-.355-.3-.656-.656-.656H4.28c-.383 0-.656.3-.656.656V2.5H.781c-.383 0-.656.3-.656.656v1.531c0 .985.602 1.997 1.668 2.762.875.63 1.914 1.012 3.008 1.149.875 1.421 1.886 1.996 1.886 1.996v1.969H5.375c-.984 0-1.75.574-1.75 1.53v.329c0 .191.137.328.328.328h8.094a.332.332 0 0 0 .328-.328v-.328c0-.957-.793-1.531-1.75-1.531H9.312v-1.97s.985-.573 1.86-1.995c1.094-.137 2.133-.52 3.008-1.149 1.066-.765 1.695-1.777 1.695-2.761V3.155c0-.355-.3-.656-.656-.656ZM2.832 6.027c-.684-.465-.957-1.011-.957-1.34V4.25h1.75c.027.902.164 1.695.355 2.379a4.558 4.558 0 0 1-1.148-.602Zm11.293-1.34c0 .465-.492 1.012-.984 1.34a4.57 4.57 0 0 1-1.149.602 9.915 9.915 0 0 0 .356-2.379h1.777v.438Z"/>
</svg>
