<svg xmlns="http://www.w3.org/2000/svg" width="16" height="15" fill="currentColor" viewBox="0 0 16 15">
  <path d="M7.563 3.375c.71 0 1.312-.574 1.312-1.313A1.33 1.33 0 0 0 7.562.75c-.738 0-1.312.602-1.312 1.313 0 .738.574 1.312 1.313 1.312ZM5.84 10.539a34.933 34.933 0 0 0-2.16-1.312L1.71 8.16.153 13.656a.653.653 0 0 0-.054.246c0 .465.41.875.902.875.355 0 .738-.3.82-.656l1.012-3.5L4.5 11.742v2.133c0 .492.383.875.875.875a.881.881 0 0 0 .875-.875V11.25c0-.246-.191-.574-.41-.71Zm2.789 1.586c-.356 0-.738.273-.848.602l-.656 2.023h8.75l-2.79-5.633c-.327-.601-1.175-.656-1.53-.055l-.875 1.477-1.805-.957-.656-3.336c-.164-.93-1.04-2.05-1.887-2.488-.027 0-.055 0-.082-.028-.055-.027-.164-.054-.219-.082a3.52 3.52 0 0 0-1.312-.273H2.75c-.246.027-.52.137-.684.3l-1.53 1.75a.207.207 0 0 1-.056.11c-.246.383-.082.875.33 1.095l9.187 5.059-.246.437H8.629Zm-5.633-5.77-.629-.328.766-.902h.93l-1.067 1.23Zm2.57 1.422.957-1.148.356 1.86-1.313-.712Z"/>
</svg>
